<svg width="12" height="12" viewBox="0 0 12 12" fill="none" xmlns="http://www.w3.org/2000/svg">
<path d="M8.9801 0.999971H11.0601V11H8.9701L8.8901 9.54997C8.59677 10.0633 8.2001 10.4766 7.7001 10.79C7.2001 11.1033 6.6101 11.26 5.9301 11.26C5.19676 11.26 4.50676 11.1233 3.8601 10.85C3.21343 10.57 2.64343 10.1833 2.1501 9.68997C1.66343 9.19664 1.28343 8.62997 1.0101 7.98997C0.736764 7.3433 0.600098 6.64997 0.600098 5.90997C0.600098 5.19664 0.733431 4.52664 1.0001 3.89997C1.26676 3.26664 1.63676 2.7133 2.1101 2.23997C2.58343 1.76664 3.1301 1.39664 3.7501 1.12997C4.37676 0.856637 5.04676 0.719971 5.7601 0.719971C6.48676 0.719971 7.12676 0.886637 7.6801 1.21997C8.2401 1.54664 8.70343 1.96664 9.0701 2.47997L8.9801 0.999971ZM5.8801 9.24997C6.46676 9.24997 6.9801 9.10664 7.4201 8.81997C7.8601 8.52664 8.2001 8.1333 8.4401 7.63997C8.68676 7.14664 8.8101 6.59997 8.8101 5.99997C8.8101 5.3933 8.68676 4.8433 8.4401 4.34997C8.19343 3.85664 7.8501 3.46664 7.4101 3.17997C6.97676 2.88664 6.46676 2.73997 5.8801 2.73997C5.3001 2.73997 4.7701 2.88664 4.2901 3.17997C3.8101 3.4733 3.4301 3.86664 3.1501 4.35997C2.8701 4.8533 2.7301 5.39997 2.7301 5.99997C2.7301 6.60664 2.87343 7.15664 3.1601 7.64997C3.45343 8.13664 3.83676 8.52664 4.3101 8.81997C4.7901 9.10664 5.31343 9.24997 5.8801 9.24997Z" fill="black"/>
</svg>
