<svg width="57" height="16" viewBox="0 0 57 16" fill="none" xmlns="http://www.w3.org/2000/svg">
<path d="M8.39709 5H10.4771V15H8.38709L8.30709 13.55C8.01376 14.0633 7.61709 14.4767 7.11709 14.79C6.61709 15.1033 6.02709 15.26 5.34709 15.26C4.61376 15.26 3.92376 15.1233 3.27709 14.85C2.63042 14.57 2.06042 14.1833 1.56709 13.69C1.08042 13.1967 0.700423 12.63 0.42709 11.99C0.153757 11.3433 0.0170898 10.65 0.0170898 9.91C0.0170898 9.19667 0.150423 8.52667 0.41709 7.9C0.683756 7.26667 1.05376 6.71333 1.52709 6.24C2.00042 5.76667 2.54709 5.39667 3.16709 5.13C3.79376 4.85667 4.46376 4.72 5.17709 4.72C5.90376 4.72 6.54376 4.88667 7.09709 5.22C7.65709 5.54667 8.12042 5.96667 8.48709 6.48L8.39709 5ZM5.29709 13.25C5.88376 13.25 6.39709 13.1067 6.83709 12.82C7.27709 12.5267 7.61709 12.1333 7.85709 11.64C8.10376 11.1467 8.22709 10.6 8.22709 10C8.22709 9.39333 8.10376 8.84333 7.85709 8.35C7.61042 7.85667 7.26709 7.46667 6.82709 7.18C6.39376 6.88667 5.88376 6.74 5.29709 6.74C4.71709 6.74 4.18709 6.88667 3.70709 7.18C3.22709 7.47333 2.84709 7.86667 2.56709 8.36C2.28709 8.85333 2.14709 9.4 2.14709 10C2.14709 10.6067 2.29042 11.1567 2.57709 11.65C2.87042 12.1367 3.25376 12.5267 3.72709 12.82C4.20709 13.1067 4.73042 13.25 5.29709 13.25Z" fill="black"/>
<path d="M20.6126 7.08L15.0526 12.92H20.6126V15H12.0726V12.92L17.6326 7.08H12.0726V5H20.6126V7.08Z" fill="black"/>
<path d="M22.3554 15V5H24.4354V6.06C24.782 5.64667 25.2054 5.32 25.7054 5.08C26.212 4.84 26.7587 4.72 27.3454 4.72C28.0587 4.72 28.7154 4.89333 29.3154 5.24C29.9154 5.58 30.392 6.03333 30.7454 6.6C31.0987 6.03333 31.5687 5.58 32.1554 5.24C32.7487 4.89333 33.402 4.72 34.1154 4.72C34.8554 4.72 35.5287 4.9 36.1354 5.26C36.742 5.62 37.2254 6.10333 37.5854 6.71C37.9454 7.31667 38.1254 7.99 38.1254 8.73V15H36.0454V9.26C36.0454 8.82 35.9387 8.41667 35.7254 8.05C35.512 7.68333 35.2254 7.38667 34.8654 7.16C34.5054 6.93333 34.1054 6.82 33.6654 6.82C33.2254 6.82 32.8254 6.92667 32.4654 7.14C32.1054 7.35333 31.8187 7.64333 31.6054 8.01C31.392 8.37667 31.2854 8.79333 31.2854 9.26V15H29.2054V9.26C29.2054 8.79333 29.0987 8.37667 28.8854 8.01C28.672 7.64333 28.382 7.35333 28.0154 7.14C27.6554 6.92667 27.2554 6.82 26.8154 6.82C26.382 6.82 25.982 6.93333 25.6154 7.16C25.2554 7.38667 24.9687 7.68333 24.7554 8.05C24.542 8.41667 24.4354 8.82 24.4354 9.26V15H22.3554Z" fill="black"/>
<path d="M45.4088 7.08H43.3088L43.2988 15H41.2188L41.2288 7.08H39.6388V5H41.2288L41.2188 1.86H43.2988L43.3088 5H45.4088V7.08Z" fill="black"/>
<path d="M56.1991 8.73V15H54.1191V9.24C54.1191 8.79333 54.0091 8.38667 53.7891 8.02C53.5758 7.65333 53.2858 7.36333 52.9191 7.15C52.5591 6.93 52.1525 6.82 51.6991 6.82C51.2591 6.82 50.8558 6.93 50.4891 7.15C50.1225 7.36333 49.8291 7.65333 49.6091 8.02C49.3891 8.38667 49.2791 8.79333 49.2791 9.24V15H47.1991V0H49.2791V6.06C49.6258 5.64667 50.0525 5.32 50.5591 5.08C51.0658 4.84 51.6125 4.72 52.1991 4.72C52.9391 4.72 53.6125 4.9 54.2191 5.26C54.8258 5.62 55.3058 6.10333 55.6591 6.71C56.0191 7.31667 56.1991 7.99 56.1991 8.73Z" fill="black"/>
</svg>
