<svg width="57" height="16" viewBox="0 0 57 16" fill="none" xmlns="http://www.w3.org/2000/svg">
<path d="M8.9801 5H11.0601V15H8.9701L8.8901 13.55C8.59677 14.0633 8.2001 14.4767 7.7001 14.79C7.2001 15.1033 6.6101 15.26 5.9301 15.26C5.19676 15.26 4.50676 15.1233 3.8601 14.85C3.21343 14.57 2.64343 14.1833 2.1501 13.69C1.66343 13.1967 1.28343 12.63 1.0101 11.99C0.736764 11.3433 0.600098 10.65 0.600098 9.91C0.600098 9.19667 0.733431 8.52667 1.0001 7.9C1.26676 7.26667 1.63676 6.71333 2.1101 6.24C2.58343 5.76667 3.1301 5.39667 3.7501 5.13C4.37676 4.85667 5.04676 4.72 5.7601 4.72C6.48676 4.72 7.12676 4.88667 7.6801 5.22C8.2401 5.54667 8.70343 5.96667 9.0701 6.48L8.9801 5ZM5.8801 13.25C6.46676 13.25 6.9801 13.1067 7.4201 12.82C7.8601 12.5267 8.2001 12.1333 8.4401 11.64C8.68676 11.1467 8.8101 10.6 8.8101 10C8.8101 9.39333 8.68676 8.84333 8.4401 8.35C8.19343 7.85667 7.8501 7.46667 7.4101 7.18C6.97676 6.88667 6.46676 6.74 5.8801 6.74C5.3001 6.74 4.7701 6.88667 4.2901 7.18C3.8101 7.47333 3.4301 7.86667 3.1501 8.36C2.8701 8.85333 2.7301 9.4 2.7301 10C2.7301 10.6067 2.87343 11.1567 3.1601 11.65C3.45343 12.1367 3.83676 12.5267 4.3101 12.82C4.7901 13.1067 5.31343 13.25 5.8801 13.25Z" fill="white"/>
<path d="M21.1956 7.08L15.6356 12.92H21.1956V15H12.6556V12.92L18.2156 7.08H12.6556V5H21.1956V7.08Z" fill="white"/>
<path d="M22.9384 15V5H25.0184V6.06C25.365 5.64667 25.7884 5.32 26.2884 5.08C26.795 4.84 27.3417 4.72 27.9284 4.72C28.6417 4.72 29.2984 4.89333 29.8984 5.24C30.4984 5.58 30.975 6.03333 31.3284 6.6C31.6817 6.03333 32.1517 5.58 32.7384 5.24C33.3317 4.89333 33.985 4.72 34.6984 4.72C35.4384 4.72 36.1117 4.9 36.7184 5.26C37.325 5.62 37.8084 6.10333 38.1684 6.71C38.5284 7.31667 38.7084 7.99 38.7084 8.73V15H36.6284V9.26C36.6284 8.82 36.5217 8.41667 36.3084 8.05C36.095 7.68333 35.8084 7.38667 35.4484 7.16C35.0884 6.93333 34.6884 6.82 34.2484 6.82C33.8084 6.82 33.4084 6.92667 33.0484 7.14C32.6884 7.35333 32.4017 7.64333 32.1884 8.01C31.975 8.37667 31.8684 8.79333 31.8684 9.26V15H29.7884V9.26C29.7884 8.79333 29.6817 8.37667 29.4684 8.01C29.255 7.64333 28.965 7.35333 28.5984 7.14C28.2384 6.92667 27.8384 6.82 27.3984 6.82C26.965 6.82 26.565 6.93333 26.1984 7.16C25.8384 7.38667 25.5517 7.68333 25.3384 8.05C25.125 8.41667 25.0184 8.82 25.0184 9.26V15H22.9384Z" fill="white"/>
<path d="M45.9918 7.08H43.8918L43.8818 15H41.8018L41.8118 7.08H40.2218V5H41.8118L41.8018 1.86H43.8818L43.8918 5H45.9918V7.08Z" fill="white"/>
<path d="M56.7821 8.73V15H54.7021V9.24C54.7021 8.79333 54.5921 8.38667 54.3721 8.02C54.1588 7.65333 53.8688 7.36333 53.5021 7.15C53.1421 6.93 52.7355 6.82 52.2821 6.82C51.8421 6.82 51.4388 6.93 51.0721 7.15C50.7055 7.36333 50.4121 7.65333 50.1921 8.02C49.9721 8.38667 49.8621 8.79333 49.8621 9.24V15H47.7821V0H49.8621V6.06C50.2088 5.64667 50.6355 5.32 51.1421 5.08C51.6488 4.84 52.1955 4.72 52.7821 4.72C53.5221 4.72 54.1955 4.9 54.8021 5.26C55.4088 5.62 55.8888 6.10333 56.2421 6.71C56.6021 7.31667 56.7821 7.99 56.7821 8.73Z" fill="white"/>
</svg>
